<svg width="368" height="142" viewBox="0 0 368 142" fill="none" xmlns="http://www.w3.org/2000/svg">
<g filter="url(#filter0_i_1_2)">
<path d="M54.624 98V95.44C57.3547 95.2693 59.4027 94.928 60.768 94.416C62.1333 93.904 63.0293 92.88 63.456 91.344C63.968 89.808 64.224 87.504 64.224 84.432V20.944C64.224 17.7867 63.968 15.4827 63.456 14.032C63.0293 12.496 62.0907 11.472 60.64 10.96C59.2747 10.3627 57.2693 10.0213 54.624 9.936V7.376C56.928 7.46133 59.9147 7.54666 63.584 7.632C67.3387 7.71733 71.0507 7.75999 74.72 7.75999C78.6453 7.75999 82.3147 7.71733 85.728 7.632C89.2267 7.54666 92.0427 7.46133 94.176 7.376V9.936C91.4453 10.0213 89.3547 10.3627 87.904 10.96C86.5387 11.472 85.6427 12.496 85.216 14.032C84.7893 15.4827 84.576 17.7867 84.576 20.944V84.432C84.576 87.504 84.7893 89.808 85.216 91.344C85.728 92.88 86.6667 93.904 88.032 94.416C89.3973 94.928 91.4453 95.2693 94.176 95.44V98C92.0427 97.8293 89.2267 97.744 85.728 97.744C82.3147 97.6587 78.6453 97.616 74.72 97.616C71.0507 97.616 67.3387 97.6587 63.584 97.744C59.9147 97.744 56.928 97.8293 54.624 98ZM0.352 98V95.44C3.08267 95.2693 5.13067 94.928 6.496 94.416C7.86133 93.904 8.75733 92.88 9.184 91.344C9.696 89.808 9.952 87.504 9.952 84.432V20.944C9.952 17.7867 9.696 15.4827 9.184 14.032C8.75733 12.496 7.81867 11.472 6.368 10.96C5.00267 10.3627 2.99733 10.0213 0.352 9.936V7.376C2.57067 7.46133 5.42933 7.54666 8.928 7.632C12.512 7.71733 16.3947 7.75999 20.576 7.75999C24.16 7.75999 27.7013 7.71733 31.2 7.632C34.6987 7.54666 37.6 7.46133 39.904 7.376V9.936C37.1733 10.0213 35.0827 10.3627 33.632 10.96C32.2667 11.472 31.3707 12.496 30.944 14.032C30.5173 15.4827 30.304 17.7867 30.304 20.944V84.432C30.304 87.504 30.5173 89.808 30.944 91.344C31.456 92.88 32.3947 93.904 33.76 94.416C35.1253 94.928 37.1733 95.2693 39.904 95.44V98C37.6 97.8293 34.6987 97.744 31.2 97.744C27.7013 97.6587 24.16 97.616 20.576 97.616C16.3947 97.616 12.512 97.6587 8.928 97.744C5.42933 97.744 2.57067 97.8293 0.352 98ZM21.984 53.712V51.152H72.544V53.712H21.984ZM132.096 30.032C138.325 30.032 143.787 31.184 148.48 33.488C153.173 35.792 156.843 39.504 159.488 44.624C162.133 49.744 163.456 56.528 163.456 64.976C163.456 73.424 162.133 80.208 159.488 85.328C156.843 90.3627 153.173 94.032 148.48 96.336C143.787 98.64 138.325 99.792 132.096 99.792C126.037 99.792 120.619 98.64 115.84 96.336C111.147 94.032 107.435 90.3627 104.704 85.328C102.059 80.208 100.736 73.424 100.736 64.976C100.736 56.528 102.059 49.744 104.704 44.624C107.435 39.504 111.147 35.792 115.84 33.488C120.619 31.184 126.037 30.032 132.096 30.032ZM132.096 32.592C128.683 32.592 125.824 35.152 123.52 40.272C121.216 45.3067 120.064 53.5413 120.064 64.976C120.064 76.4107 121.216 84.6453 123.52 89.68C125.824 94.7147 128.683 97.232 132.096 97.232C135.595 97.232 138.453 94.7147 140.672 89.68C142.976 84.6453 144.128 76.4107 144.128 64.976C144.128 53.5413 142.976 45.3067 140.672 40.272C138.453 35.152 135.595 32.592 132.096 32.592ZM147.072 0.719994C149.632 0.719994 151.851 1.70133 153.728 3.66399C155.691 5.54133 156.672 7.75999 156.672 10.32C156.672 12.9653 155.691 15.2267 153.728 17.104C151.851 18.9813 149.632 19.92 147.072 19.92C144.427 19.92 142.123 18.9813 140.16 17.104C138.283 15.2267 137.344 12.9653 137.344 10.32C137.344 7.75999 138.283 5.54133 140.16 3.66399C142.123 1.70133 144.427 0.719994 147.072 0.719994ZM117.888 0.719994C120.448 0.719994 122.709 1.70133 124.672 3.66399C126.635 5.54133 127.616 7.75999 127.616 10.32C127.616 12.9653 126.635 15.2267 124.672 17.104C122.709 18.9813 120.448 19.92 117.888 19.92C115.243 19.92 112.981 18.9813 111.104 17.104C109.227 15.2267 108.288 12.9653 108.288 10.32C108.288 7.75999 109.227 5.54133 111.104 3.66399C112.981 1.70133 115.243 0.719994 117.888 0.719994ZM215.479 30.032C218.21 30.032 220.428 30.6293 222.135 31.824C223.842 32.9333 225.079 34.384 225.847 36.176C226.7 37.968 227.127 39.8453 227.127 41.808C227.127 44.9653 226.188 47.568 224.311 49.616C222.519 51.5787 220.13 52.56 217.143 52.56C214.156 52.56 211.81 51.8347 210.103 50.384C208.482 48.848 207.671 46.8427 207.671 44.368C207.671 41.9787 208.183 40.016 209.207 38.48C210.316 36.8587 211.682 35.4933 213.303 34.384C212.108 34.0427 210.914 34.0853 209.719 34.512C208.098 34.768 206.562 35.4507 205.111 36.56C203.66 37.584 202.423 38.9067 201.399 40.528C200.375 42.064 199.564 43.7707 198.967 45.648C198.37 47.44 198.071 49.1893 198.071 50.896V84.816C198.071 88.912 199.052 91.6853 201.015 93.136C203.063 94.5867 206.092 95.312 210.103 95.312V98C208.14 97.9147 205.282 97.8293 201.527 97.744C197.772 97.5733 193.847 97.488 189.751 97.488C186.338 97.488 182.882 97.5733 179.383 97.744C175.884 97.8293 173.239 97.9147 171.447 98V95.312C174.434 95.312 176.524 94.672 177.719 93.392C178.999 92.112 179.639 89.68 179.639 86.096V45.776C179.639 41.936 179.042 39.12 177.847 37.328C176.738 35.4507 174.604 34.512 171.447 34.512V31.824C174.178 32.08 176.823 32.208 179.383 32.208C182.967 32.208 186.295 32.08 189.367 31.824C192.524 31.4827 195.426 31.0133 198.071 30.416V42.32C199.095 40.016 200.46 37.9253 202.167 36.048C203.874 34.1707 205.836 32.72 208.055 31.696C210.274 30.5867 212.748 30.032 215.479 30.032ZM262.471 30.032C269.98 30.032 275.868 32.2507 280.135 36.688C284.402 41.1253 286.535 48.3787 286.535 58.448H244.423L244.167 56.016H270.407C270.492 51.8347 270.236 47.9947 269.639 44.496C269.042 40.912 268.103 38.0533 266.823 35.92C265.543 33.7867 263.836 32.72 261.703 32.72C258.716 32.72 256.156 34.5973 254.023 38.352C251.975 42.1067 250.738 48.336 250.311 57.04L250.695 57.808C250.61 58.832 250.524 59.8987 250.439 61.008C250.439 62.1173 250.439 63.2693 250.439 64.464C250.439 70.352 251.25 75.1307 252.871 78.8C254.578 82.4693 256.711 85.1573 259.271 86.864C261.831 88.4853 264.434 89.296 267.079 89.296C268.871 89.296 270.706 89.04 272.583 88.528C274.546 87.9307 276.508 86.9067 278.471 85.456C280.434 83.92 282.268 81.7867 283.975 79.056L286.279 79.824C285.255 83.0667 283.634 86.224 281.415 89.296C279.196 92.368 276.38 94.8853 272.967 96.848C269.554 98.8107 265.458 99.792 260.679 99.792C254.876 99.792 249.756 98.5547 245.319 96.08C240.882 93.6053 237.383 89.8507 234.823 84.816C232.348 79.7813 231.111 73.3813 231.111 65.616C231.111 57.68 232.434 51.0667 235.079 45.776C237.81 40.4853 241.522 36.56 246.215 34C250.994 31.3547 256.412 30.032 262.471 30.032ZM340.813 30.032C344.397 30.032 347.298 30.5013 349.517 31.44C351.821 32.2933 353.613 33.488 354.893 35.024C356.258 36.6453 357.24 38.736 357.837 41.296C358.52 43.856 358.861 47.312 358.861 51.664V86.096C358.861 89.68 359.458 92.112 360.653 93.392C361.933 94.672 364.066 95.312 367.053 95.312V98C365.432 97.9147 363 97.8293 359.757 97.744C356.514 97.5733 353.314 97.488 350.157 97.488C346.914 97.488 343.714 97.5733 340.557 97.744C337.485 97.8293 335.138 97.9147 333.517 98V95.312C336.077 95.312 337.869 94.672 338.893 93.392C339.917 92.112 340.429 89.68 340.429 86.096V46.288C340.429 44.1547 340.216 42.32 339.789 40.784C339.362 39.1627 338.594 37.9253 337.485 37.072C336.376 36.1333 334.712 35.664 332.493 35.664C330.189 35.664 328.056 36.304 326.093 37.584C324.216 38.864 322.68 40.656 321.485 42.96C320.376 45.1787 319.821 47.696 319.821 50.512V86.096C319.821 89.68 320.333 92.112 321.357 93.392C322.466 94.672 324.258 95.312 326.733 95.312V98C325.197 97.9147 322.936 97.8293 319.949 97.744C317.048 97.5733 314.018 97.488 310.861 97.488C307.618 97.488 304.29 97.5733 300.877 97.744C297.464 97.8293 294.904 97.9147 293.197 98V95.312C296.184 95.312 298.274 94.672 299.469 93.392C300.749 92.112 301.389 89.68 301.389 86.096V45.776C301.389 41.936 300.792 39.12 299.597 37.328C298.488 35.4507 296.354 34.512 293.197 34.512V31.824C295.928 32.08 298.573 32.208 301.133 32.208C304.717 32.208 308.045 32.08 311.117 31.824C314.274 31.4827 317.176 31.0133 319.821 30.416V41.936C321.954 37.584 324.856 34.512 328.525 32.72C332.194 30.928 336.29 30.032 340.813 30.032ZM71.238 124.072C71.9847 124.072 72.6353 124.179 73.19 124.392C73.7447 124.605 74.2033 124.904 74.566 125.288C74.9713 125.715 75.2487 126.269 75.398 126.952C75.5473 127.635 75.622 128.477 75.622 129.48V138.024C75.622 138.92 75.8033 139.528 76.166 139.848C76.55 140.168 77.1793 140.328 78.054 140.328V141C77.6913 140.979 77.1367 140.957 76.39 140.936C75.6433 140.893 74.918 140.872 74.214 140.872C73.51 140.872 72.8167 140.893 72.134 140.936C71.4727 140.957 70.9713 140.979 70.63 141V140.328C71.398 140.328 71.942 140.168 72.262 139.848C72.582 139.528 72.742 138.92 72.742 138.024V128.776C72.742 128.115 72.6993 127.507 72.614 126.952C72.5287 126.397 72.3153 125.949 71.974 125.608C71.6327 125.267 71.078 125.096 70.31 125.096C69.478 125.096 68.7313 125.352 68.07 125.864C67.43 126.376 66.918 127.08 66.534 127.976C66.1713 128.851 65.99 129.832 65.99 130.92V138.024C65.99 138.92 66.15 139.528 66.47 139.848C66.79 140.168 67.334 140.328 68.102 140.328V141C67.7607 140.979 67.2487 140.957 66.566 140.936C65.9047 140.893 65.222 140.872 64.518 140.872C63.814 140.872 63.0887 140.893 62.342 140.936C61.5953 140.957 61.0407 140.979 60.678 141V140.328C61.5527 140.328 62.1713 140.168 62.534 139.848C62.918 139.528 63.11 138.92 63.11 138.024V128.008C63.11 127.048 62.9393 126.344 62.598 125.896C62.2567 125.427 61.6167 125.192 60.678 125.192V124.52C61.3607 124.584 62.022 124.616 62.662 124.616C63.2807 124.616 63.8673 124.584 64.422 124.52C64.998 124.435 65.5207 124.317 65.99 124.168V127.944C66.5447 126.557 67.302 125.565 68.262 124.968C69.222 124.371 70.214 124.072 71.238 124.072ZM80.87 124.072C81.6167 124.072 82.2673 124.179 82.822 124.392C83.3767 124.605 83.8353 124.904 84.198 125.288C84.6033 125.715 84.8807 126.269 85.03 126.952C85.1793 127.635 85.254 128.477 85.254 129.48V138.024C85.254 138.92 85.4353 139.528 85.798 139.848C86.182 140.168 86.8113 140.328 87.686 140.328V141C87.3233 140.979 86.7687 140.957 86.022 140.936C85.2753 140.893 84.55 140.872 83.846 140.872C83.142 140.872 82.4487 140.893 81.766 140.936C81.1047 140.957 80.6033 140.979 80.262 141V140.328C81.03 140.328 81.574 140.168 81.894 139.848C82.214 139.528 82.374 138.92 82.374 138.024V128.776C82.374 128.115 82.3313 127.507 82.246 126.952C82.1607 126.397 81.9473 125.949 81.606 125.608C81.2647 125.267 80.71 125.096 79.942 125.096C79.11 125.096 78.3633 125.352 77.702 125.864C77.062 126.376 76.55 127.069 76.166 127.944C75.8033 128.819 75.622 129.8 75.622 130.888L75.526 127.912C76.102 126.44 76.8807 125.437 77.862 124.904C78.8433 124.349 79.846 124.072 80.87 124.072ZM111.581 124.168V137.544C111.581 138.504 111.752 139.219 112.093 139.688C112.456 140.136 113.096 140.36 114.013 140.36V141.032C113.352 140.968 112.69 140.936 112.029 140.936C111.41 140.936 110.813 140.968 110.237 141.032C109.682 141.096 109.17 141.213 108.701 141.384V137.608C108.168 138.995 107.41 139.987 106.429 140.584C105.469 141.16 104.477 141.448 103.453 141.448C102.706 141.448 102.056 141.341 101.501 141.128C100.946 140.915 100.488 140.616 100.125 140.232C99.7197 139.805 99.4423 139.251 99.293 138.568C99.1437 137.885 99.069 137.043 99.069 136.04V128.008C99.069 127.048 98.8983 126.344 98.557 125.896C98.2157 125.427 97.5757 125.192 96.637 125.192V124.52C97.3197 124.584 97.981 124.616 98.621 124.616C99.2397 124.616 99.8263 124.584 100.381 124.52C100.957 124.435 101.48 124.317 101.949 124.168V136.744C101.949 137.405 101.992 138.013 102.077 138.568C102.162 139.123 102.376 139.571 102.717 139.912C103.058 140.253 103.613 140.424 104.381 140.424C105.213 140.424 105.949 140.168 106.589 139.656C107.25 139.144 107.762 138.451 108.125 137.576C108.509 136.701 108.701 135.72 108.701 134.632V128.008C108.701 127.048 108.53 126.344 108.189 125.896C107.848 125.427 107.208 125.192 106.269 125.192V124.52C106.952 124.584 107.613 124.616 108.253 124.616C108.872 124.616 109.458 124.584 110.013 124.52C110.589 124.435 111.112 124.317 111.581 124.168ZM129.344 124.072C130.197 124.072 130.922 124.211 131.52 124.488C132.117 124.765 132.554 125.021 132.832 125.256C133.536 125.832 133.962 125.448 134.112 124.104H134.848C134.805 124.701 134.773 125.416 134.752 126.248C134.73 127.059 134.72 128.157 134.72 129.544H133.984C133.856 128.755 133.632 127.987 133.312 127.24C133.013 126.493 132.565 125.885 131.968 125.416C131.37 124.925 130.592 124.68 129.632 124.68C128.885 124.68 128.256 124.893 127.744 125.32C127.253 125.725 127.008 126.333 127.008 127.144C127.008 127.784 127.2 128.339 127.584 128.808C127.968 129.256 128.469 129.683 129.088 130.088C129.706 130.472 130.378 130.899 131.104 131.368C131.914 131.88 132.65 132.403 133.312 132.936C133.973 133.469 134.496 134.056 134.88 134.696C135.285 135.336 135.488 136.093 135.488 136.968C135.488 137.949 135.232 138.771 134.72 139.432C134.208 140.093 133.536 140.595 132.704 140.936C131.893 141.277 130.997 141.448 130.016 141.448C129.546 141.448 129.098 141.405 128.672 141.32C128.266 141.256 127.872 141.149 127.488 141C127.274 140.893 127.05 140.765 126.816 140.616C126.602 140.467 126.389 140.307 126.176 140.136C125.962 139.965 125.77 139.976 125.6 140.168C125.429 140.339 125.301 140.691 125.216 141.224H124.48C124.522 140.541 124.554 139.709 124.576 138.728C124.597 137.747 124.608 136.445 124.608 134.824H125.344C125.493 136.019 125.706 137.064 125.984 137.96C126.261 138.856 126.698 139.56 127.296 140.072C127.893 140.563 128.725 140.808 129.792 140.808C130.218 140.808 130.645 140.712 131.072 140.52C131.52 140.328 131.893 140.008 132.192 139.56C132.49 139.112 132.64 138.515 132.64 137.768C132.64 136.829 132.298 136.061 131.616 135.464C130.933 134.867 130.069 134.237 129.024 133.576C128.256 133.085 127.53 132.595 126.848 132.104C126.186 131.613 125.642 131.059 125.216 130.44C124.81 129.821 124.608 129.075 124.608 128.2C124.608 127.24 124.821 126.461 125.248 125.864C125.696 125.245 126.282 124.797 127.008 124.52C127.733 124.221 128.512 124.072 129.344 124.072ZM149.545 116.52C150.099 116.52 150.579 116.723 150.985 117.128C151.39 117.533 151.593 118.013 151.593 118.568C151.593 119.123 151.39 119.603 150.985 120.008C150.579 120.413 150.099 120.616 149.545 120.616C148.99 120.616 148.51 120.413 148.105 120.008C147.699 119.603 147.497 119.123 147.497 118.568C147.497 118.013 147.699 117.533 148.105 117.128C148.51 116.723 148.99 116.52 149.545 116.52ZM151.209 124.168V138.024C151.209 138.92 151.39 139.528 151.753 139.848C152.137 140.168 152.766 140.328 153.641 140.328V141C153.278 140.979 152.723 140.957 151.977 140.936C151.251 140.893 150.515 140.872 149.769 140.872C149.043 140.872 148.307 140.893 147.561 140.936C146.814 140.957 146.259 140.979 145.897 141V140.328C146.771 140.328 147.39 140.168 147.753 139.848C148.137 139.528 148.329 138.92 148.329 138.024V128.008C148.329 127.048 148.158 126.344 147.817 125.896C147.475 125.427 146.835 125.192 145.897 125.192V124.52C146.579 124.584 147.241 124.616 147.881 124.616C148.499 124.616 149.086 124.584 149.641 124.52C150.217 124.435 150.739 124.317 151.209 124.168ZM171.241 124.072C171.923 124.072 172.585 124.157 173.225 124.328C173.865 124.499 174.441 124.755 174.953 125.096C175.443 125.416 175.817 125.789 176.073 126.216C176.329 126.621 176.457 127.069 176.457 127.56C176.457 128.136 176.297 128.584 175.977 128.904C175.657 129.203 175.251 129.352 174.761 129.352C174.291 129.352 173.875 129.213 173.513 128.936C173.171 128.659 173.001 128.264 173.001 127.752C173.001 127.261 173.129 126.867 173.385 126.568C173.662 126.269 173.982 126.077 174.345 125.992C174.131 125.608 173.747 125.288 173.193 125.032C172.659 124.776 172.083 124.648 171.465 124.648C170.931 124.648 170.398 124.776 169.865 125.032C169.331 125.288 168.841 125.715 168.393 126.312C167.945 126.888 167.582 127.688 167.305 128.712C167.027 129.715 166.889 130.973 166.889 132.488C166.889 134.365 167.102 135.859 167.529 136.968C167.955 138.077 168.51 138.877 169.193 139.368C169.897 139.837 170.665 140.072 171.497 140.072C172.051 140.072 172.617 139.965 173.193 139.752C173.769 139.539 174.313 139.197 174.825 138.728C175.337 138.237 175.774 137.587 176.137 136.776L176.745 137C176.531 137.683 176.179 138.376 175.689 139.08C175.198 139.763 174.558 140.328 173.769 140.776C172.979 141.224 172.009 141.448 170.857 141.448C169.534 141.448 168.339 141.107 167.273 140.424C166.206 139.741 165.353 138.771 164.713 137.512C164.094 136.232 163.785 134.717 163.785 132.968C163.785 131.219 164.094 129.683 164.713 128.36C165.353 127.016 166.238 125.971 167.369 125.224C168.499 124.456 169.79 124.072 171.241 124.072ZM216.406 124.072C217.259 124.072 217.985 124.211 218.582 124.488C219.179 124.765 219.617 125.021 219.894 125.256C220.598 125.832 221.025 125.448 221.174 124.104H221.91C221.867 124.701 221.835 125.416 221.814 126.248C221.793 127.059 221.782 128.157 221.782 129.544H221.046C220.918 128.755 220.694 127.987 220.374 127.24C220.075 126.493 219.627 125.885 219.03 125.416C218.433 124.925 217.654 124.68 216.694 124.68C215.947 124.68 215.318 124.893 214.806 125.32C214.315 125.725 214.07 126.333 214.07 127.144C214.07 127.784 214.262 128.339 214.646 128.808C215.03 129.256 215.531 129.683 216.15 130.088C216.769 130.472 217.441 130.899 218.166 131.368C218.977 131.88 219.713 132.403 220.374 132.936C221.035 133.469 221.558 134.056 221.942 134.696C222.347 135.336 222.55 136.093 222.55 136.968C222.55 137.949 222.294 138.771 221.782 139.432C221.27 140.093 220.598 140.595 219.766 140.936C218.955 141.277 218.059 141.448 217.078 141.448C216.609 141.448 216.161 141.405 215.734 141.32C215.329 141.256 214.934 141.149 214.55 141C214.337 140.893 214.113 140.765 213.878 140.616C213.665 140.467 213.451 140.307 213.238 140.136C213.025 139.965 212.833 139.976 212.662 140.168C212.491 140.339 212.363 140.691 212.278 141.224H211.542C211.585 140.541 211.617 139.709 211.638 138.728C211.659 137.747 211.67 136.445 211.67 134.824H212.406C212.555 136.019 212.769 137.064 213.046 137.96C213.323 138.856 213.761 139.56 214.358 140.072C214.955 140.563 215.787 140.808 216.854 140.808C217.281 140.808 217.707 140.712 218.134 140.52C218.582 140.328 218.955 140.008 219.254 139.56C219.553 139.112 219.702 138.515 219.702 137.768C219.702 136.829 219.361 136.061 218.678 135.464C217.995 134.867 217.131 134.237 216.086 133.576C215.318 133.085 214.593 132.595 213.91 132.104C213.249 131.613 212.705 131.059 212.278 130.44C211.873 129.821 211.67 129.075 211.67 128.2C211.67 127.24 211.883 126.461 212.31 125.864C212.758 125.245 213.345 124.797 214.07 124.52C214.795 124.221 215.574 124.072 216.406 124.072ZM237.705 119.208V124.552H242.441V125.192H237.705V137.576C237.705 138.579 237.886 139.283 238.249 139.688C238.612 140.093 239.113 140.296 239.753 140.296C240.393 140.296 240.948 140.04 241.417 139.528C241.886 138.995 242.292 138.109 242.633 136.872L243.273 137.032C243.06 138.269 242.633 139.315 241.993 140.168C241.374 141.021 240.414 141.448 239.113 141.448C238.388 141.448 237.79 141.352 237.321 141.16C236.852 140.989 236.436 140.733 236.073 140.392C235.604 139.901 235.273 139.315 235.081 138.632C234.91 137.949 234.825 137.043 234.825 135.912V125.192H231.753V124.552H234.825V119.656C235.358 119.635 235.87 119.592 236.361 119.528C236.852 119.464 237.3 119.357 237.705 119.208ZM259.143 124.072C260.508 124.072 261.735 124.371 262.823 124.968C263.911 125.565 264.775 126.504 265.415 127.784C266.076 129.064 266.407 130.728 266.407 132.776C266.407 134.824 266.076 136.488 265.415 137.768C264.775 139.027 263.911 139.955 262.823 140.552C261.735 141.149 260.508 141.448 259.143 141.448C257.799 141.448 256.572 141.149 255.463 140.552C254.375 139.955 253.5 139.027 252.839 137.768C252.199 136.488 251.879 134.824 251.879 132.776C251.879 130.728 252.199 129.064 252.839 127.784C253.5 126.504 254.375 125.565 255.463 124.968C256.572 124.371 257.799 124.072 259.143 124.072ZM259.143 124.712C257.927 124.712 256.924 125.341 256.135 126.6C255.367 127.859 254.983 129.917 254.983 132.776C254.983 135.635 255.367 137.693 256.135 138.952C256.924 140.189 257.927 140.808 259.143 140.808C260.359 140.808 261.351 140.189 262.119 138.952C262.908 137.693 263.303 135.635 263.303 132.776C263.303 129.917 262.908 127.859 262.119 126.6C261.351 125.341 260.359 124.712 259.143 124.712ZM286.755 124.072C287.331 124.072 287.832 124.189 288.259 124.424C288.707 124.659 289.048 124.968 289.283 125.352C289.539 125.715 289.667 126.131 289.667 126.6C289.667 127.133 289.496 127.603 289.155 128.008C288.835 128.413 288.398 128.616 287.843 128.616C287.395 128.616 287 128.477 286.659 128.2C286.318 127.901 286.147 127.485 286.147 126.952C286.147 126.547 286.254 126.205 286.467 125.928C286.702 125.629 286.958 125.395 287.235 125.224C287.086 125.011 286.862 124.904 286.563 124.904C285.902 124.904 285.294 125.107 284.739 125.512C284.184 125.896 283.715 126.397 283.331 127.016C282.947 127.635 282.648 128.296 282.435 129C282.222 129.683 282.115 130.323 282.115 130.92V137.704C282.115 138.749 282.414 139.453 283.011 139.816C283.63 140.157 284.462 140.328 285.507 140.328V141C285.016 140.979 284.323 140.957 283.427 140.936C282.531 140.893 281.582 140.872 280.579 140.872C279.854 140.872 279.128 140.893 278.403 140.936C277.699 140.957 277.166 140.979 276.803 141V140.328C277.678 140.328 278.296 140.168 278.659 139.848C279.043 139.528 279.235 138.92 279.235 138.024V128.008C279.235 127.048 279.064 126.344 278.723 125.896C278.382 125.427 277.742 125.192 276.803 125.192V124.52C277.486 124.584 278.147 124.616 278.787 124.616C279.406 124.616 279.992 124.584 280.547 124.52C281.123 124.435 281.646 124.317 282.115 124.168V128.168C282.35 127.549 282.68 126.931 283.107 126.312C283.555 125.672 284.088 125.139 284.707 124.712C285.326 124.285 286.008 124.072 286.755 124.072ZM306.11 124.072C307.988 124.072 309.449 124.648 310.494 125.8C311.561 126.931 312.094 128.701 312.094 131.112H300.798L300.766 130.504H309.022C309.065 129.459 308.98 128.499 308.766 127.624C308.553 126.728 308.212 126.013 307.742 125.48C307.294 124.947 306.708 124.68 305.982 124.68C305.001 124.68 304.126 125.171 303.358 126.152C302.612 127.133 302.164 128.691 302.014 130.824L302.11 130.952C302.068 131.272 302.036 131.624 302.014 132.008C301.993 132.392 301.982 132.776 301.982 133.16C301.982 134.611 302.217 135.859 302.686 136.904C303.156 137.949 303.764 138.749 304.51 139.304C305.278 139.837 306.068 140.104 306.878 140.104C307.518 140.104 308.126 140.008 308.702 139.816C309.278 139.603 309.812 139.261 310.302 138.792C310.793 138.323 311.22 137.693 311.582 136.904L312.222 137.16C311.988 137.864 311.604 138.547 311.07 139.208C310.537 139.869 309.865 140.413 309.054 140.84C308.244 141.245 307.305 141.448 306.238 141.448C304.702 141.448 303.38 141.096 302.27 140.392C301.182 139.688 300.34 138.717 299.742 137.48C299.166 136.221 298.878 134.781 298.878 133.16C298.878 131.283 299.177 129.672 299.774 128.328C300.372 126.963 301.214 125.917 302.302 125.192C303.39 124.445 304.66 124.072 306.11 124.072Z" fill="black"/>
</g>
<defs>
<filter id="filter0_i_1_2" x="0.35199" y="0.720001" width="366.701" height="144.728" filterUnits="userSpaceOnUse" color-interpolation-filters="sRGB">
<feFlood flood-opacity="0" result="BackgroundImageFix"/>
<feBlend mode="normal" in="SourceGraphic" in2="BackgroundImageFix" result="shape"/>
<feColorMatrix in="SourceAlpha" type="matrix" values="0 0 0 0 0 0 0 0 0 0 0 0 0 0 0 0 0 0 127 0" result="hardAlpha"/>
<feOffset dy="4"/>
<feGaussianBlur stdDeviation="2"/>
<feComposite in2="hardAlpha" operator="arithmetic" k2="-1" k3="1"/>
<feColorMatrix type="matrix" values="0 0 0 0 0 0 0 0 0 0 0 0 0 0 0 0 0 0 0.25 0"/>
<feBlend mode="normal" in2="shape" result="effect1_innerShadow_1_2"/>
</filter>
</defs>
</svg>
